<svg width="138" height="38" viewBox="0 0 138 38" fill="none" xmlns="http://www.w3.org/2000/svg">
<g id="logos:netflix" clip-path="url(#clip0_1_67)">
<path id="Vector" d="M91.817 0V27.0078C95.1484 27.1628 98.4709 27.3501 101.784 27.5712V33.2974C96.5292 32.9469 91.2689 32.6811 86.0053 32.4998V0H91.817ZM137.999 0.00323438L130.432 17.5481L137.997 37.0724L137.989 37.0759C135.783 36.7621 133.575 36.4635 131.365 36.1803L127.116 25.2222L122.827 35.1631C120.795 34.9385 118.759 34.7264 116.719 34.527L124.097 17.4306L117.34 0.00350391H123.627L127.41 9.75622L131.616 0.00323438H137.999ZM66.0595 32.216V0.00296484H82.2826V5.78064H71.8711V13.2682H79.7487V18.9944H71.8711V32.2149L66.0595 32.216ZM44.3587 5.78091V0.00269531H62.3338V5.78064H56.2518V32.3726C54.312 32.4238 52.3743 32.4836 50.4407 32.5567V5.78091H44.3587ZM24.491 34.2213V0.00377344H40.6333V5.78118H30.3019V13.6073C32.6753 13.5768 36.0501 13.5426 38.1498 13.5475V19.2742C35.5216 19.2418 32.5549 19.3103 30.3019 19.3327V28.0019C33.7431 27.7307 37.1871 27.4953 40.6333 27.2957V33.0224C35.2463 33.3332 29.8648 33.7331 24.491 34.2218V34.2213ZM13.0907 20.9841L13.0904 0.00269531H18.902V34.7614C16.7776 34.9798 14.6569 35.2124 12.5403 35.4579L5.81036 16.1244V36.2859C3.86946 36.5387 1.93234 36.8021 -0.00100708 37.0773V0.00323438H5.52196L13.0904 20.9841H13.0907ZM106.579 33.6426V0.00323438H112.391V34.1227C110.456 33.9502 108.519 33.7911 106.579 33.6429V33.6426Z" fill="#DB202C"/>
</g>
<defs>
<clipPath id="clip0_1_67">
<rect width="138" height="37.1953" fill="white"/>
</clipPath>
</defs>
</svg>
