<svg width="53" height="57" viewBox="0 0 53 57" fill="none" xmlns="http://www.w3.org/2000/svg">
<g id="logos:netflix-icon">
<path id="Vector" d="M29.3312 9.19012L29.3174 17.7314L29.3033 26.2728L28.6499 24.29L28.6487 24.2862L27.8044 43.3015C28.6346 45.8229 29.0793 47.1688 29.0843 47.1742C29.0907 47.1813 29.5639 47.212 30.1356 47.2425C31.8676 47.3349 34.0141 47.5329 35.6424 47.7506C36.0194 47.8009 36.3438 47.8268 36.3635 47.8078C36.3829 47.7891 36.3935 39.0924 36.3871 28.482L36.3751 9.19012H29.3312Z" fill="#B1060F" stroke="black" stroke-width="0.611984"/>
<path id="Vector_2" d="M16.5912 9.16455V28.476C16.5912 39.0973 16.6009 47.7978 16.6127 47.8105C16.6245 47.8232 17.2361 47.7611 17.9719 47.6725C18.7075 47.5839 19.7244 47.4737 20.2314 47.4276C21.009 47.357 23.3307 47.1965 23.5994 47.1947C23.6777 47.1942 23.6826 46.7605 23.694 39.0154L23.706 30.8363L24.2677 32.5457L24.4664 33.1497L25.3105 14.1391L25.0205 13.2574C24.5872 11.9396 24.1536 10.6219 23.7197 9.30438L23.6731 9.16455H16.5912Z" fill="#B1060F" stroke="black" stroke-width="0.611984"/>
<path id="Vector_3" d="M16.5912 9.16455V20.0046L23.6915 40.2609C23.6924 39.7967 23.6932 39.546 23.694 39.0154L23.706 30.8363L24.2677 32.5457C27.3947 42.0616 29.0745 47.1635 29.0845 47.1742C29.0909 47.1813 29.5642 47.212 30.1358 47.2425C31.8678 47.3349 34.0143 47.5329 35.6426 47.7506C36.0196 47.801 36.344 47.8268 36.3637 47.8079C36.377 47.795 36.3859 43.5306 36.3881 37.5151L29.3209 15.6637L29.3176 17.7315L29.3035 26.2728L28.6501 24.29C28.0117 22.3527 27.5854 21.0571 25.0205 13.2574C24.5872 11.9396 24.1536 10.6219 23.7197 9.30438L23.6731 9.16455H16.5912Z" fill="url(#paint0_radial_2_2)"/>
<path id="Vector_4" d="M16.5912 9.16455L23.7058 30.8461V30.8363L24.2675 32.5457C27.3945 42.0616 29.0743 47.1635 29.0843 47.1742C29.0907 47.1813 29.564 47.2121 30.1356 47.2426C31.8676 47.335 34.0141 47.5329 35.6424 47.7507C36.0176 47.8008 36.3401 47.8264 36.3629 47.8081L29.3031 26.269V26.2728L28.6497 24.29C28.0112 22.3527 27.585 21.0571 25.0201 13.2574C24.3302 11.16 23.7449 9.38142 23.7193 9.30438L23.6727 9.16455H16.5912Z" fill="#E50914"/>
<path id="Vector_5" d="M29.3312 9.19012L29.3174 17.7314L29.3033 26.2728L28.6499 24.29L28.6487 24.2862L27.8044 43.3015C28.6346 45.8229 29.0793 47.1688 29.0843 47.1742C29.0907 47.1813 29.5639 47.212 30.1356 47.2425C31.8676 47.3349 34.0141 47.5329 35.6424 47.7506C36.0194 47.8009 36.3438 47.8268 36.3635 47.8078C36.3829 47.7891 36.3935 39.0924 36.3871 28.482L36.3751 9.19012H29.3312Z" fill="#B1060F" stroke="black" stroke-width="0.611984"/>
<path id="Vector_6" d="M16.5912 9.16455V28.476C16.5912 39.0973 16.6009 47.7979 16.6127 47.8105C16.6245 47.8232 17.2361 47.7611 17.9719 47.6725C18.7075 47.5839 19.7244 47.4737 20.2314 47.4276C21.009 47.357 23.3307 47.1965 23.5994 47.1947C23.6777 47.1942 23.6826 46.7605 23.694 39.0154L23.706 30.8363L24.2677 32.5457L24.4664 33.1497L25.3105 14.1391L25.0205 13.2574C24.5872 11.9396 24.1536 10.6219 23.7197 9.30438L23.6731 9.16455H16.5912Z" fill="#B1060F" stroke="black" stroke-width="0.611984"/>
<path id="Vector_7" d="M16.5912 9.16455V20.0046L23.6915 40.2609C23.6924 39.7967 23.6932 39.546 23.694 39.0154L23.706 30.8363L24.2677 32.5457C27.3947 42.0616 29.0745 47.1635 29.0845 47.1742C29.0909 47.1813 29.5642 47.212 30.1358 47.2425C31.8678 47.3349 34.0143 47.5329 35.6426 47.7506C36.0196 47.801 36.344 47.8268 36.3637 47.8079C36.377 47.795 36.3859 43.5306 36.3881 37.5151L29.3209 15.6637L29.3176 17.7315L29.3035 26.2728L28.6501 24.29C28.0117 22.3527 27.5854 21.0571 25.0205 13.2574C24.5872 11.9396 24.1536 10.6219 23.7197 9.30438L23.6731 9.16455H16.5912Z" fill="url(#paint1_radial_2_2)"/>
<path id="Vector_8" d="M15 9L22.1146 30.6816V30.6718L22.6763 32.3811C25.8033 41.897 27.4832 46.999 27.4931 47.0096C27.4995 47.0168 27.9728 47.0475 28.5444 47.078C30.2764 47.1704 32.4229 47.3683 34.0512 47.5861C34.4264 47.6362 34.7489 47.6618 34.7717 47.6435L27.7119 26.1045V26.1082L27.0585 24.1255C26.4201 22.1882 25.9938 20.8925 23.4289 13.0929C22.739 10.9954 22.1538 9.21687 22.1281 9.13983L22.0815 9H15Z" fill="#E50914"/>
</g>
<defs>
<radialGradient id="paint0_radial_2_2" cx="0" cy="0" r="1" gradientUnits="userSpaceOnUse" gradientTransform="translate(26.161 15.6199) scale(13.9446 14.9971)">
<stop/>
<stop offset="1" stop-opacity="0"/>
</radialGradient>
<radialGradient id="paint1_radial_2_2" cx="0" cy="0" r="1" gradientUnits="userSpaceOnUse" gradientTransform="translate(26.161 15.6199) scale(13.9446 14.9971)">
<stop/>
<stop offset="1" stop-opacity="0"/>
</radialGradient>
</defs>
</svg>
