<svg width="24" height="24" viewBox="0 0 24 24" fill="none" xmlns="http://www.w3.org/2000/svg">
<g id="bi:bell-fill" clip-path="url(#clip0_6_429)">
<g id="Group">
<path id="Vector" d="M12 24C12.7956 24 13.5587 23.6839 14.1213 23.1213C14.6839 22.5587 15 21.7956 15 21H9C9 21.7956 9.31607 22.5587 9.87868 23.1213C10.4413 23.6839 11.2044 24 12 24ZM13.4925 1.64848C13.5134 1.43991 13.4904 1.22927 13.4249 1.03014C13.3595 0.831011 13.253 0.647816 13.1124 0.492368C12.9717 0.336921 12.8001 0.212673 12.6085 0.127638C12.4169 0.0426029 12.2096 -0.00133133 12 -0.00133133C11.7904 -0.00133133 11.5831 0.0426029 11.3915 0.127638C11.1999 0.212673 11.0283 0.336921 10.8876 0.492368C10.747 0.647816 10.6405 0.831011 10.5751 1.03014C10.5096 1.22927 10.4866 1.43991 10.5075 1.64848C8.81208 1.99333 7.28793 2.91352 6.19315 4.25323C5.09836 5.59294 4.50022 7.26984 4.5 8.99998C4.5 10.647 3.75 18 1.5 19.5H22.5C20.25 18 19.5 10.647 19.5 8.99998C19.5 5.36998 16.92 2.33998 13.4925 1.64848Z" fill="white"/>
</g>
</g>
<defs>
<clipPath id="clip0_6_429">
<rect width="24" height="24" fill="white"/>
</clipPath>
</defs>
</svg>
